<?xml version="1.0" encoding="UTF-8"?> <svg xmlns="http://www.w3.org/2000/svg" width="70" height="70" viewBox="0 0 70 70" fill="none"> <path d="M61.2695 14.0156L50.8502 5.30702C50.6371 5.12814 50.359 5.04289 50.0843 5.06734C49.8076 5.0925 49.5512 5.22596 49.373 5.43908L44.8554 10.8468L41.444 7.99723C40.9975 7.62549 40.3386 7.68628 39.9675 8.12999L33.2838 16.1308C33.1056 16.3439 33.0197 16.6192 33.0441 16.8966C33.0693 17.1733 33.2027 17.429 33.4166 17.6072L42.038 24.8086L25.9362 44.0796L17.3134 36.8747C17.0996 36.6972 16.8243 36.6099 16.5476 36.6351C16.2708 36.6595 16.0151 36.7944 15.8369 37.0068L9.15248 45.0069C8.78143 45.4513 8.84013 46.1123 9.28454 46.4833L12.6959 49.3335L8.47607 54.3842C8.29788 54.598 8.21193 54.8726 8.23639 55.15C8.26154 55.4267 8.39501 55.6824 8.60813 55.8613L19.0303 64.5699C19.2197 64.7278 19.4579 64.8138 19.7025 64.8138C19.7333 64.8138 19.7647 64.8124 19.7961 64.8096C20.0729 64.7851 20.3286 64.6503 20.5068 64.4379L24.7267 59.388L28.1695 62.2647C28.3589 62.4227 28.5972 62.5086 28.8417 62.5086C28.8725 62.5086 28.9039 62.5072 28.9354 62.5044C29.2121 62.4799 29.4678 62.3451 29.646 62.1327L36.3311 54.1326C36.7022 53.6882 36.6428 53.0272 36.1991 52.6561L27.5448 45.424L43.6466 26.153L52.3036 33.3844C52.493 33.5424 52.7306 33.6283 52.9758 33.6283C53.0073 33.6283 53.038 33.6269 53.0695 33.6241C53.3462 33.599 53.6026 33.4655 53.7808 33.2517L60.4639 25.2502C60.8349 24.8058 60.7755 24.1448 60.3318 23.7737L56.8876 20.897L61.4023 15.4914C61.7727 15.0477 61.7133 14.3874 61.2695 14.0156ZM19.5697 62.2878L10.7569 54.9236L14.3045 50.6787L23.1174 58.0421L19.5697 62.2878ZM28.709 59.9819L25.3164 57.147C25.3004 57.1317 25.2878 57.1142 25.2703 57.1002C25.2535 57.0863 25.234 57.0765 25.2165 57.0639L14.8887 48.4343C14.8747 48.421 14.8635 48.4056 14.8489 48.393C14.8342 48.3804 14.8167 48.3728 14.8013 48.3609L11.4333 45.547L16.774 39.1562L34.0504 53.5911L28.709 59.9819ZM52.8438 31.1037L35.5646 16.6702L40.9046 10.278L58.1838 24.7108L52.8438 31.1037ZM55.2783 19.5533L46.4647 12.1912L50.31 7.58776L59.1208 14.9526L55.2783 19.5533Z" fill="white"></path> </svg> 