<?xml version="1.0" encoding="UTF-8"?> <svg xmlns="http://www.w3.org/2000/svg" width="20" height="20" viewBox="0 0 20 20" fill="none"> <rect y="12" width="2" height="8" rx="1" fill="white"></rect> <rect x="6" y="8" width="2" height="12" rx="1" fill="white"></rect> <path d="M12 5C12 4.44772 12.4477 4 13 4C13.5523 4 14 4.44772 14 5V19C14 19.5523 13.5523 20 13 20C12.4477 20 12 19.5523 12 19V5Z" fill="white"></path> <path d="M18 1C18 0.447715 18.4477 0 19 0C19.5523 0 20 0.447715 20 1V19C20 19.5523 19.5523 20 19 20C18.4477 20 18 19.5523 18 19V1Z" fill="white"></path> </svg> 